<svg xmlns="http://www.w3.org/2000/svg" version="1.1" xmlns:xlink="http://www.w3.org/1999/xlink" xmlns:svgjs="http://svgjs.dev/svgjs" width="1000" height="1000" viewBox="0 0 1000 1000"><rect width="1000" height="1000" fill="#ffffff"></rect><g transform="matrix(0.7,0,0,0.7,150.0433691119751,268.1378947368421)"><svg viewBox="0 0 372 247" data-background-color="#ffffff" preserveAspectRatio="xMidYMid meet" height="663" width="1000" xmlns="http://www.w3.org/2000/svg" xmlns:xlink="http://www.w3.org/1999/xlink"><defs></defs><g id="tight-bounds" transform="matrix(1,0,0,1,-0.023047585221036115,-0.09999999999999432)"><svg viewBox="0 0 372.0460702746867 247.2" height="247.2" width="372.0460702746867"><g><svg viewBox="0 0 395.52 262.7968733222022" height="247.2" width="372.0460702746867"><g transform="matrix(1,0,0,1,0,194.8289026982169)"><svg viewBox="0 0 395.52 67.96797062398531" height="67.96797062398531" width="395.52"><g><svg viewBox="0 0 395.52 67.96797062398531" height="67.96797062398531" width="395.52"><g><svg viewBox="0 0 395.52 67.96797062398531" height="67.96797062398531" width="395.52"><g transform="matrix(1,0,0,1,0,0)"><svg width="395.52" viewBox="2.25 -37.25 255.99429321289062 43.95000076293945" height="67.96797062398531" data-palette-color="#ee3e38"><g class="undefined-text-0" data-fill-palette-color="primary" id="text-0"><path d="M12.3 5.95L12.3 5.95 4.55 5.95Q3.35 5.95 2.8 5.4 2.25 4.85 2.25 3.65L2.25 3.65 2.25-28.75Q2.25-29.4 2.43-29.85 2.6-30.3 2.95-30.6L2.95-30.6 9.4-36.05Q9.65-36.25 10.08-36.38 10.5-36.5 11-36.5L11-36.5 33.3-36.5Q34.5-36.5 35.05-35.95 35.6-35.4 35.6-34.2L35.6-34.2 35.6-28.25Q35.6-27.6 35.43-27.15 35.25-26.7 34.9-26.4L34.9-26.4 29.3-21.75Q30.45-21.75 31-21.2 31.55-20.65 31.55-19.45L31.55-19.45 31.55-13.45Q31.55-12.8 31.38-12.35 31.2-11.9 30.85-11.6L30.85-11.6 24.35-6.2Q24.15-6 23.73-5.85 23.3-5.7 22.8-5.7L22.8-5.7 21.05-5.7 21.05-1.8Q21.05-1.15 20.88-0.7 20.7-0.25 20.35 0.05L20.35 0.05 13.85 5.45Q13.65 5.65 13.23 5.8 12.8 5.95 12.3 5.95ZM11 0L18.75 0Q19.7 0 20.13-0.43 20.55-0.85 20.55-1.8L20.55-1.8 20.55-11.65 29.25-11.65Q30.2-11.65 30.63-12.08 31.05-12.5 31.05-13.45L31.05-13.45 31.05-19.45Q31.05-20.4 30.63-20.83 30.2-21.25 29.25-21.25L29.25-21.25 20.55-21.25 20.55-26.45 33.3-26.45Q34.25-26.45 34.68-26.88 35.1-27.3 35.1-28.25L35.1-28.25 35.1-34.2Q35.1-35.15 34.68-35.58 34.25-36 33.3-36L33.3-36 11-36Q10.05-36 9.63-35.58 9.2-35.15 9.2-34.2L9.2-34.2 9.2-1.8Q9.2-0.85 9.63-0.43 10.05 0 11 0L11 0ZM15.15-4.5L14.65-4.5 14.65-31.5 30.6-31.5 30.6-31 15.15-31 15.15-16.7 26.55-16.7 26.55-16.2 15.15-16.2 15.15-4.5ZM73.1-1.85L66.65 3.55Q64.9 5.05 61.75 5.88 58.6 6.7 53.65 6.7L53.65 6.7Q48.75 6.7 45.62 5.68 42.5 4.65 40.72 2.95 38.95 1.25 38.27-0.95 37.6-3.15 37.6-5.5L37.6-5.5 37.6-21.05Q37.6-23.35 38.25-25.33 38.9-27.3 40.6-28.7L40.6-28.7 47.1-34.1Q48.85-35.6 51.97-36.43 55.1-37.25 60.1-37.25L60.1-37.25Q65-37.25 68.12-36.45 71.25-35.65 73.02-34.23 74.8-32.8 75.45-30.83 76.1-28.85 76.1-26.5L76.1-26.5 76.1-9.45Q76.1-7.15 75.45-5.2 74.8-3.25 73.1-1.85L73.1-1.85ZM75.6-9.45L75.6-9.45 75.6-26.5Q75.6-28.8 74.92-30.68 74.25-32.55 72.52-33.9 70.8-35.25 67.77-36 64.75-36.75 60.1-36.75L60.1-36.75Q55.45-36.75 52.4-36 49.35-35.25 47.62-33.9 45.9-32.55 45.22-30.68 44.55-28.8 44.55-26.5L44.55-26.5 44.55-9.45Q44.55-7.15 45.22-5.28 45.9-3.4 47.62-2.08 49.35-0.75 52.4 0 55.45 0.75 60.1 0.75L60.1 0.75Q64.75 0.75 67.77 0 70.8-0.75 72.52-2.08 74.25-3.4 74.92-5.28 75.6-7.15 75.6-9.45ZM70.15-25.35L70.15-10.6Q70.15-7.6 68-5.73 65.85-3.85 60-3.85L60-3.85Q54.15-3.85 52.05-5.73 49.95-7.6 49.95-10.6L49.95-10.6 49.95-25.35Q49.95-28.35 52.05-30.23 54.15-32.1 60-32.1L60-32.1Q65.85-32.1 68-30.23 70.15-28.35 70.15-25.35L70.15-25.35ZM50.45-25.35L50.45-10.6Q50.45-7.8 52.45-6.08 54.45-4.35 60-4.35L60-4.35Q65.55-4.35 67.6-6.08 69.65-7.8 69.65-10.6L69.65-10.6 69.65-25.35Q69.65-28.15 67.6-29.88 65.55-31.6 60-31.6L60-31.6Q54.45-31.6 52.45-29.88 50.45-28.15 50.45-25.35L50.45-25.35ZM55.9-11.25L55.9-11.25 55.9-24.7Q55.9-25.65 56.65-26.33 57.4-27 60.1-27L60.1-27Q62.8-27 63.55-26.33 64.3-25.65 64.3-24.7L64.3-24.7 64.3-11.25Q64.3-10.25 63.55-9.58 62.8-8.9 60.1-8.9L60.1-8.9Q57.4-8.9 56.65-9.58 55.9-10.25 55.9-11.25ZM56.4-20.7L56.4-11.25Q56.4-10.75 56.6-10.38 56.8-10 57.35-9.75L57.35-9.75 57.35-19.25Q57.35-19.75 57.15-20.13 56.95-20.5 56.4-20.7L56.4-20.7ZM114.95-1.85L108.5 3.55Q106.75 5.05 103.59 5.88 100.45 6.7 95.5 6.7L95.5 6.7Q90.59 6.7 87.47 5.68 84.34 4.65 82.57 2.95 80.8 1.25 80.12-0.95 79.45-3.15 79.45-5.5L79.45-5.5 79.45-21.05Q79.45-23.35 80.09-25.33 80.75-27.3 82.45-28.7L82.45-28.7 88.95-34.1Q90.7-35.6 93.82-36.43 96.95-37.25 101.95-37.25L101.95-37.25Q106.84-37.25 109.97-36.45 113.09-35.65 114.87-34.23 116.65-32.8 117.3-30.83 117.95-28.85 117.95-26.5L117.95-26.5 117.95-9.45Q117.95-7.15 117.3-5.2 116.65-3.25 114.95-1.85L114.95-1.85ZM117.45-9.45L117.45-9.45 117.45-26.5Q117.45-28.8 116.77-30.68 116.09-32.55 114.37-33.9 112.65-35.25 109.62-36 106.59-36.75 101.95-36.75L101.95-36.75Q97.3-36.75 94.25-36 91.2-35.25 89.47-33.9 87.75-32.55 87.07-30.68 86.4-28.8 86.4-26.5L86.4-26.5 86.4-9.45Q86.4-7.15 87.07-5.28 87.75-3.4 89.47-2.08 91.2-0.75 94.25 0 97.3 0.75 101.95 0.75L101.95 0.75Q106.59 0.75 109.62 0 112.65-0.75 114.37-2.08 116.09-3.4 116.77-5.28 117.45-7.15 117.45-9.45ZM112-25.35L112-10.6Q112-7.6 109.84-5.73 107.7-3.85 101.84-3.85L101.84-3.85Q96-3.85 93.9-5.73 91.8-7.6 91.8-10.6L91.8-10.6 91.8-25.35Q91.8-28.35 93.9-30.23 96-32.1 101.84-32.1L101.84-32.1Q107.7-32.1 109.84-30.23 112-28.35 112-25.35L112-25.35ZM92.3-25.35L92.3-10.6Q92.3-7.8 94.3-6.08 96.3-4.35 101.84-4.35L101.84-4.35Q107.4-4.35 109.45-6.08 111.5-7.8 111.5-10.6L111.5-10.6 111.5-25.35Q111.5-28.15 109.45-29.88 107.4-31.6 101.84-31.6L101.84-31.6Q96.3-31.6 94.3-29.88 92.3-28.15 92.3-25.35L92.3-25.35ZM97.75-11.25L97.75-11.25 97.75-24.7Q97.75-25.65 98.5-26.33 99.25-27 101.95-27L101.95-27Q104.65-27 105.4-26.33 106.15-25.65 106.15-24.7L106.15-24.7 106.15-11.25Q106.15-10.25 105.4-9.58 104.65-8.9 101.95-8.9L101.95-8.9Q99.25-8.9 98.5-9.58 97.75-10.25 97.75-11.25ZM98.25-20.7L98.25-11.25Q98.25-10.75 98.45-10.38 98.65-10 99.2-9.75L99.2-9.75 99.2-19.25Q99.2-19.75 99-20.13 98.8-20.5 98.25-20.7L98.25-20.7ZM157.09-2.1L150.59 3.3Q149.04 4.6 146.64 5.28 144.24 5.95 140.99 5.95L140.99 5.95 124.14 5.95Q122.94 5.95 122.39 5.4 121.84 4.85 121.84 3.65L121.84 3.65 121.84-28.75Q121.84-29.4 122.02-29.85 122.19-30.3 122.54-30.6L122.54-30.6 128.99-36.05Q129.24-36.25 129.67-36.38 130.09-36.5 130.59-36.5L130.59-36.5 147.44-36.5Q153.99-36.5 157.12-33.85 160.24-31.2 160.24-25.8L160.24-25.8 160.24-10.2Q160.24-7.5 159.44-5.48 158.64-3.45 157.09-2.1L157.09-2.1ZM130.59 0L147.44 0Q153.69 0 156.72-2.5 159.74-5 159.74-10.2L159.74-10.2 159.74-25.8Q159.74-31 156.72-33.5 153.69-36 147.44-36L147.44-36 130.59-36Q129.64-36 129.22-35.58 128.79-35.15 128.79-34.2L128.79-34.2 128.79-1.8Q128.79-0.85 129.22-0.43 129.64 0 130.59 0L130.59 0ZM146.34-4.5L134.24-4.5 134.24-31.5 146.34-31.5Q148.89-31.5 150.47-30.95 152.04-30.4 152.89-29.48 153.74-28.55 154.04-27.28 154.34-26 154.34-24.55L154.34-24.55 154.34-11.3Q154.34-9.85 154.07-8.6 153.79-7.35 152.94-6.45 152.09-5.55 150.49-5.03 148.89-4.5 146.34-4.5L146.34-4.5ZM146.34-31L146.34-31 134.74-31 134.74-5 146.34-5Q148.74-5 150.22-5.48 151.69-5.95 152.49-6.78 153.29-7.6 153.57-8.78 153.84-9.95 153.84-11.3L153.84-11.3 153.84-24.55Q153.84-25.9 153.54-27.1 153.24-28.3 152.44-29.15 151.64-30 150.17-30.5 148.69-31 146.34-31ZM140.14-9.45L140.14-26.45 146.09-26.45Q147.29-26.45 147.87-25.88 148.44-25.3 148.44-24.05L148.44-24.05 148.44-11.9Q148.44-10.65 147.87-10.05 147.29-9.45 146.09-9.45L146.09-9.45 140.14-9.45ZM141.49-9.95L141.49-18.6Q141.49-19.25 141.29-19.7 141.09-20.15 140.64-20.35L140.64-20.35 140.64-9.95 141.49-9.95ZM186.94 5.95L186.94 5.95 165.64 5.95Q164.44 5.95 163.89 5.4 163.34 4.85 163.34 3.65L163.34 3.65 163.34-2.3Q163.34-2.95 163.52-3.4 163.69-3.85 164.04-4.15L164.04-4.15 170.09-9.25 170.09-20.4 165.64-20.4Q164.44-20.4 163.89-20.95 163.34-21.5 163.34-22.7L163.34-22.7 163.34-28.75Q163.34-29.4 163.52-29.85 163.69-30.3 164.04-30.6L164.04-30.6 170.49-36.05Q170.74-36.25 171.17-36.38 171.59-36.5 172.09-36.5L172.09-36.5 193.39-36.5Q194.59-36.5 195.14-35.95 195.69-35.4 195.69-34.2L195.69-34.2 195.69-28.15Q195.69-27.5 195.52-27.05 195.34-26.6 194.99-26.3L194.99-26.3 189.04-21.3 189.04-10.05 193.39-10.05Q194.59-10.05 195.14-9.5 195.69-8.95 195.69-7.75L195.69-7.75 195.69-1.8Q195.69-1.15 195.52-0.7 195.34-0.25 194.99 0.05L194.99 0.05 188.49 5.45Q188.29 5.65 187.87 5.8 187.44 5.95 186.94 5.95ZM172.09 0L172.09 0 193.39 0Q194.34 0 194.77-0.43 195.19-0.85 195.19-1.8L195.19-1.8 195.19-7.75Q195.19-8.7 194.77-9.13 194.34-9.55 193.39-9.55L193.39-9.55 188.54-9.55 188.54-26.35 193.39-26.35Q194.34-26.35 194.77-26.78 195.19-27.2 195.19-28.15L195.19-28.15 195.19-34.2Q195.19-35.15 194.77-35.58 194.34-36 193.39-36L193.39-36 172.09-36Q171.14-36 170.72-35.58 170.29-35.15 170.29-34.2L170.29-34.2 170.29-28.15Q170.29-27.2 170.72-26.78 171.14-26.35 172.09-26.35L172.09-26.35 177.04-26.35 177.04-9.55 172.09-9.55Q171.14-9.55 170.72-9.13 170.29-8.7 170.29-7.75L170.29-7.75 170.29-1.8Q170.29-0.85 170.72-0.43 171.14 0 172.09 0ZM190.69-5L190.69-4.5 174.79-4.5 174.79-5 182.54-5 182.54-31 174.79-31 174.79-31.5 190.69-31.5 190.69-31 183.04-31 183.04-5 190.69-5ZM216.89 5.95L216.89 5.95 208.79 5.95Q207.59 5.95 207.04 5.4 206.49 4.85 206.49 3.65L206.49 3.65 206.49-20.4 199.64-20.4Q198.44-20.4 197.89-20.95 197.34-21.5 197.34-22.7L197.34-22.7 197.34-28.75Q197.34-29.4 197.51-29.85 197.69-30.3 198.04-30.6L198.04-30.6 204.49-36.05Q204.74-36.25 205.16-36.38 205.59-36.5 206.09-36.5L206.09-36.5 232.49-36.5Q233.69-36.5 234.24-35.95 234.79-35.4 234.79-34.2L234.79-34.2 234.79-28.15Q234.79-27.5 234.61-27.05 234.44-26.6 234.09-26.3L234.09-26.3 227.59-20.9Q227.39-20.7 226.96-20.55 226.54-20.4 226.04-20.4L226.04-20.4 225.64-20.4 225.64-1.8Q225.64-1.15 225.46-0.7 225.29-0.25 224.94 0.05L224.94 0.05 218.44 5.45Q218.24 5.65 217.81 5.8 217.39 5.95 216.89 5.95ZM215.24 0L223.34 0Q224.29 0 224.71-0.43 225.14-0.85 225.14-1.8L225.14-1.8 225.14-26.35 232.49-26.35Q233.44-26.35 233.86-26.78 234.29-27.2 234.29-28.15L234.29-28.15 234.29-34.2Q234.29-35.15 233.86-35.58 233.44-36 232.49-36L232.49-36 206.09-36Q205.14-36 204.71-35.58 204.29-35.15 204.29-34.2L204.29-34.2 204.29-28.15Q204.29-27.2 204.71-26.78 205.14-26.35 206.09-26.35L206.09-26.35 213.44-26.35 213.44-1.8Q213.44-0.85 213.86-0.43 214.29 0 215.24 0L215.24 0ZM219.54-4.5L219.04-4.5 219.04-31 208.79-31 208.79-31.5 229.79-31.5 229.79-31 219.54-31 219.54-4.5ZM249.44 5.95L249.44 5.95 240.24 5.95Q239.04 5.95 238.49 5.4 237.94 4.85 237.94 3.65L237.94 3.65 237.94-2.9Q237.94-3.55 238.11-4.03 238.29-4.5 238.59-4.75L238.59-4.75 241.49-7.15 240.94-7.15Q239.74-7.15 239.19-7.7 238.64-8.25 238.59-9.45L238.59-9.45 237.84-28.7Q237.79-29.4 237.96-29.88 238.14-30.35 238.49-30.65L238.49-30.65 244.94-36.05Q245.19-36.25 245.59-36.38 245.99-36.5 246.49-36.5L246.49-36.5 256.04-36.5Q257.24-36.5 257.76-35.95 258.29-35.4 258.24-34.2L258.24-34.2 257.54-14.85Q257.49-14.25 257.31-13.83 257.14-13.4 256.84-13.1L256.84-13.1 253.89-10.65 255.89-10.65Q257.09-10.65 257.64-10.13 258.19-9.6 258.19-8.35L258.19-8.35 258.19-1.8Q258.19-1.15 258.01-0.7 257.84-0.25 257.54 0.05L257.54 0.05 251.04 5.45Q250.79 5.65 250.36 5.8 249.94 5.95 249.44 5.95ZM247.39-13.1L255.14-13.1Q256.09-13.1 256.54-13.53 256.99-13.95 257.04-14.9L257.04-14.9 257.74-34.2Q257.79-35.15 257.39-35.58 256.99-36 256.04-36L256.04-36 246.49-36Q245.54-36 245.14-35.58 244.74-35.15 244.79-34.2L244.79-34.2 245.54-14.9Q245.59-13.95 246.01-13.53 246.44-13.1 247.39-13.1L247.39-13.1ZM251.04-17.6L251.04-31.5 251.54-31.5 251.54-17.6 251.04-17.6ZM246.69 0L255.89 0Q256.84 0 257.26-0.43 257.69-0.85 257.69-1.8L257.69-1.8 257.69-8.35Q257.69-9.3 257.26-9.73 256.84-10.15 255.89-10.15L255.89-10.15 246.69-10.15Q245.74-10.15 245.31-9.73 244.89-9.3 244.89-8.35L244.89-8.35 244.89-1.8Q244.89-0.85 245.31-0.43 245.74 0 246.69 0L246.69 0ZM251.54-6.15L251.54-4 251.04-4 251.04-6.15 251.54-6.15Z" fill="#ee3e38" data-fill-palette-color="primary"></path></g></svg></g></svg></g></svg></g></svg></g><g transform="matrix(1,0,0,1,116.3911552839195,0)"><svg viewBox="0 0 162.73768943216098 162.73768943216098" height="162.73768943216098" width="162.73768943216098"><g><svg></svg></g><g id="icon-0"><svg viewBox="0 0 162.73768943216098 162.73768943216098" height="162.73768943216098" width="162.73768943216098"><g><path d="M0 81.369c0-44.939 36.43-81.369 81.369-81.369 44.939 0 81.369 36.43 81.369 81.369 0 44.939-36.43 81.369-81.369 81.369-44.939 0-81.369-36.43-81.369-81.369zM81.369 156.608c41.554 0 75.239-33.686 75.239-75.239 0-41.554-33.686-75.239-75.239-75.24-41.554 0-75.239 33.686-75.24 75.24 0 41.554 33.686 75.239 75.24 75.239z" data-fill-palette-color="accent" fill="#ee3e38" stroke="transparent"></path></g><g transform="matrix(1,0,0,1,40.56677715936756,36.8084921222913)"><svg viewBox="0 0 81.60413511342585 89.12070518757838" height="89.12070518757838" width="81.60413511342585"><g><svg xmlns="http://www.w3.org/2000/svg" xmlns:xlink="http://www.w3.org/1999/xlink" version="1.1" x="0" y="0" viewBox="13.901585578918457 8.558555603027344 75.88753509521484 82.87754821777344" enable-background="new 0 0 100 100" xml:space="preserve" height="89.12070518757838" width="81.60413511342585" class="icon-x-0" data-fill-palette-color="accent" id="x-0"><g fill="#ee3e38" data-fill-palette-color="accent"><path fill="#ee3e38" d="M74.514 54.677c-0.053 0.233 0.045 0.464 0.227 0.593 0.062 0.043 0.13 0.074 0.207 0.09 0.307 0.07 0.614-0.123 0.683-0.436 0.125-0.557 0.225-1.122 0.31-1.686 0.042-0.312-0.171-0.6-0.485-0.652-0.312-0.041-0.604 0.174-0.65 0.486C74.724 53.611 74.63 54.146 74.514 54.677z" data-fill-palette-color="accent"></path><path fill="#ee3e38" d="M71.014 38.588c0.419 0.685 0.803 1.401 1.148 2.146 0.171 0.366 0.327 0.733 0.478 1.103 0.106 0.267 0.282 0.483 0.5 0.637 0.384 0.271 0.89 0.349 1.357 0.165 0.734-0.295 1.096-1.125 0.8-1.86-0.164-0.421-0.347-0.837-0.54-1.251-0.39-0.843-0.825-1.653-1.3-2.43-0.412-0.678-1.29-0.887-1.966-0.475C70.817 37.035 70.604 37.912 71.014 38.588z" data-fill-palette-color="accent"></path><path fill="#ee3e38" d="M51.447 27.278c0.098 0.069 0.221 0.11 0.348 0.104 3.298-0.106 6.644 0.533 9.687 1.851 0.291 0.125 0.625-0.01 0.755-0.299 0.122-0.289-0.002-0.618-0.3-0.752-3.195-1.382-6.717-2.055-10.175-1.945-0.314 0.009-0.564 0.275-0.555 0.593C51.214 27.013 51.306 27.178 51.447 27.278z" data-fill-palette-color="accent"></path><path fill="#ee3e38" d="M56.893 34.697c-0.491 0.333-0.827 0.842-0.941 1.425s0.008 1.176 0.342 1.672c0.582 0.862 1.743 1.194 2.68 0.818 0.085 0.238 0.195 0.456 0.332 0.658 0.13 0.191 0.278 0.368 0.456 0.527-0.242 0.018-0.474 0.094-0.681 0.231-0.341 0.231-0.57 0.58-0.646 0.982-0.079 0.402 0.007 0.812 0.236 1.147 0.1 0.149 0.227 0.28 0.376 0.385 0.279 0.198 0.624 0.291 0.97 0.268 0.086 0.232 0.204 0.476 0.363 0.716 0.277 0.408 0.617 0.754 1.017 1.036 1.363 0.963 3.204 0.981 4.584 0.047 0.896-0.607 1.499-1.522 1.703-2.579 0.203-1.058-0.016-2.132-0.621-3.026-0.411-0.608-1.001-1.08-1.723-1.384 0.02-0.319-0.001-0.631-0.064-0.928 0.31-0.281 0.517-0.655 0.602-1.074 0.096-0.515-0.01-1.034-0.305-1.468-0.581-0.869-1.847-1.11-2.716-0.523-0.179 0.125-0.334 0.278-0.458 0.464-0.787-0.083-1.552 0.103-2.2 0.541-0.161 0.108-0.309 0.229-0.445 0.369C59.027 34.253 57.773 34.1 56.893 34.697zM57.536 35.647c0.478-0.328 1.165-0.211 1.51 0.293 0.028 0.047 0.055 0.13 0.099 0.268 0.07 0.22 0.261 0.375 0.485 0.397 0.228 0.023 0.446-0.089 0.559-0.287 0.182-0.327 0.396-0.565 0.652-0.74 0.5-0.339 1.114-0.445 1.729-0.298 0.274 0.066 0.554-0.077 0.662-0.34 0.068-0.17 0.154-0.288 0.268-0.366 0.363-0.243 0.878-0.148 1.128 0.216 0.12 0.182 0.164 0.396 0.123 0.607-0.041 0.216-0.163 0.398-0.255 0.476-0.047 0.016-0.146 0.055-0.186 0.082-0.233 0.143-0.331 0.432-0.236 0.688 0.14 0.379 0.167 0.796 0.076 1.244-0.057 0.289 0.116 0.576 0.394 0.662 0.682 0.208 1.225 0.584 1.573 1.097 0.432 0.641 0.589 1.409 0.44 2.166-0.146 0.76-0.577 1.413-1.215 1.845-1.281 0.867-3.137 0.522-4.013-0.774-0.159-0.232-0.273-0.515-0.374-0.909-0.035-0.134-0.111-0.25-0.223-0.328-0.032-0.022-0.066-0.039-0.102-0.055-0.163-0.07-0.35-0.064-0.507 0.023-0.141 0.078-0.288 0.083-0.506-0.098-0.06-0.086-0.081-0.19-0.062-0.294 0.021-0.098 0.078-0.188 0.163-0.244 0.034-0.024 0.136-0.092 0.376 0.033 0.159 0.085 0.345 0.093 0.508 0.018 0.164-0.076 0.279-0.221 0.321-0.396 0.036-0.169 0.126-0.352 0.257-0.623 0.127-0.266 0.053-0.554-0.225-0.74-0.284-0.176-0.537-0.393-0.703-0.64-0.187-0.279-0.293-0.614-0.328-1.049-0.02-0.229-0.208-0.394-0.424-0.464-0.223-0.068-0.493 0.035-0.642 0.211-0.046 0.049-0.086 0.097-0.108 0.115-0.484 0.326-1.172 0.196-1.511-0.293-0.161-0.237-0.221-0.525-0.168-0.81C57.131 36.055 57.293 35.811 57.536 35.647z" data-fill-palette-color="accent"></path><path fill="#ee3e38" d="M64.566 41.849c-0.172 0.258-0.11 0.605 0.146 0.786 0.003 0.002 0.005 0.003 0.01 0.007 0.26 0.173 0.615 0.107 0.793-0.154 0.048-0.068 0.453-0.693 0.495-1.533 0.012-0.319-0.237-0.592-0.549-0.6-0.315-0.015-0.583 0.231-0.598 0.546C64.84 41.422 64.573 41.835 64.566 41.849z" data-fill-palette-color="accent"></path><path fill="#ee3e38" d="M73.781 83.551l-0.7-1.148c0.263-0.832 0.354-1.689 0.371-2.549 0.037-0.021 0.078-0.031 0.111-0.059 15.492-12.084 20.247-29.07 12.722-45.438C78.781 18.018 60.718 9.412 43.331 13.886c-0.061 0.016-0.103 0.058-0.159 0.079-0.812-0.789-1.749-1.443-2.805-1.889l-0.378-1.136c-0.704-2.099-3.439-2.964-6.517-1.97-1.774 0.575-3.213 1.672-3.857 2.932-0.417 0.824-0.504 1.721-0.238 2.535l0.303 0.909c-1.272 1.955-1.67 4.351-1.205 6.69-0.374 0.058-0.74 0.189-1.043 0.464-3.495 3.208-6.368 7.076-8.411 11.354-1.341 2.811-2.322 5.784-2.923 8.838-0.3 1.539-0.503 3.1-0.606 4.665-0.054 0.787-0.079 1.578-0.083 2.369-0.003 0.262-0.029 0.481-0.033 0.671-0.131 0.094-0.251 0.214-0.333 0.36l-0.993 1.765c-0.292 0.514-0.139 1.161 0.335 1.495 0.032 0.023 0.065 0.045 0.098 0.064l1.445 0.812 0.554 3.213c-0.067 0.043-0.138 0.074-0.197 0.129-0.214 0.215-0.336 0.504-0.338 0.809l-0.011 2.025c0 0.387 0.191 0.732 0.488 0.941 0.183 0.129 0.409 0.207 0.651 0.211h0.417c0.092 0.412 0.374 0.914 0.485 1.193 0.259 0.66 0.536 1.309 0.833 1.951 0.881 1.92 1.923 3.764 3.117 5.508 0.59 0.863 1.207 1.734 1.893 2.531 0.168 0.193 0.342 0.402 0.521 0.613 0.36 0.426 0.757 0.832 1.172 1.176l-0.168 15.061c-0.007 0.393 0.185 0.74 0.484 0.953 0.183 0.129 0.405 0.201 0.645 0.209l2.028 0.02c0.304 0.004 0.595-0.111 0.813-0.326 0.216-0.213 0.341-0.5 0.343-0.805l0.127-11.113c0.298 0.229 0.595 0.467 0.897 0.688l1.153 0.838-0.052 4.682c-0.007 0.305 0.114 0.594 0.326 0.812 0.046 0.051 0.102 0.096 0.157 0.135 0.187 0.133 0.415 0.207 0.646 0.209l2.025 0.023c0.635 0.008 1.15-0.498 1.158-1.131l0.216-19.068 0.895 0.51c-0.075 0.15-0.134 0.314-0.134 0.488l-0.223 19.727c-0.004 0.305 0.112 0.596 0.326 0.812 0.048 0.055 0.101 0.098 0.157 0.137 0.189 0.133 0.416 0.203 0.649 0.209l2.023 0.023c0.633 0.004 1.151-0.502 1.158-1.133l0.022-1.975c0.042 0.018 0.047 0.045 0.1 0.062 0.748 0.234 1.503 0.451 2.26 0.643 1.518 0.379 3.06 0.664 4.614 0.848 3.101 0.377 6.25 0.355 9.343-0.062 0.31-0.039 0.618-0.084 0.927-0.133 0.207-0.035 0.386-0.127 0.565-0.215 1.339 1.148 2.951 1.936 4.707 2.152l0.575 0.939c0.448 0.723 1.187 1.238 2.087 1.449 1.381 0.322 3.149-0.08 4.727-1.068C73.832 88.086 74.952 85.477 73.781 83.551zM82.647 36.03c6.468 14.075 2.625 28.714-10.208 39.49-0.064-0.131-0.104-0.27-0.178-0.395 0 0-1.764-3.268-4.096-7.617 0.583-0.516 1.188-1.006 1.715-1.574 0.218-0.232 0.2-0.596-0.03-0.809-0.238-0.215-0.597-0.201-0.809 0.029-0.439 0.475-0.951 0.879-1.43 1.314-4.062-7.584-9.497-17.793-10.745-20.479-1.992-4.271-10.871-27.077-11.409-28.462C60.61 14.185 76.11 21.812 82.647 36.03zM42.242 62.33l-1.291-1.025 6.606 0.037-1.593-0.008c1.259 2.646 2.482 5.199 3.639 7.592l3.501 1.973L41.91 64.588l0.516-0.646C42.821 63.445 42.737 62.725 42.242 62.33zM19.428 51.916c0.014-0.141 0.035-0.297 0.028-0.385-0.024-0.488-0.021-0.979-0.025-1.467l8.02 6.372L19.428 51.916zM19.261 48.466l1.43-1.802 5.85 4.653c0.058 0.074 0.101 0.157 0.176 0.221l2.011 1.595c0.017 0.011 0.035 0.024 0.051 0.036 0.055 0.038 0.122 0.04 0.184 0.069l7.186 5.714c0.02 0.016 0.022 0.041 0.042 0.057l2.567 2.039c0.015 0.014 0.033 0.027 0.051 0.039 0.014 0.01 0.035 0.008 0.049 0.018l2.674 2.125-0.627 0.791-7.126-4.018L19.261 48.466zM27.462 47.69l2.027 0.022-0.051 4.442-2.007-1.596L27.462 47.69zM38.782 41.476l2.023 0.022-0.172 15.44-2.027-0.012L38.782 41.476zM37.615 43.338l-0.153 13.578c-0.001 0.02 0.009 0.035 0.01 0.055l-0.566-0.004c-0.104 0.004-0.189 0.064-0.288 0.09 0.001-0.031 0.025-0.057 0.028-0.09l0.172-15.391c0-0.013-0.006-0.024-0.006-0.039 0 0.011 0.004 0.018 0.002 0.03C37.079 42.151 37.345 42.738 37.615 43.338zM35.499 56.953l-2.007-1.596 0.157-13.815 2.025 0.021L35.499 56.953zM36.491 40.764c0.107 0.105 0.187 0.234 0.242 0.37C36.676 40.998 36.598 40.87 36.491 40.764zM39.501 60.152l-2.562-2.041 24.697 0.137-0.012 2.025L39.501 60.152zM33.416 13.593c0.221-0.207 0.661-0.504 1.324-0.721 0.659-0.216 1.199-0.235 1.501-0.198l0.47 1.409c0.005 0.021 0.011 0.038 0.013 0.06 0.174 0.733 0.732 1.312 1.457 1.512 1.565 0.429 2.824 1.602 3.366 3.121l0.993 2.751c0.007 0.019 0 0.039 0.008 0.057 3.356 9.179 7.112 18.239 11.244 27.117 1.316 2.825 2.73 5.598 4.122 8.384L46.134 57.02l1.617 0.008c-2.008-4.191-3.95-8.417-5.833-12.669l-0.09 8.169c0.216 0.474 0.436 0.942 0.655 1.416 0.477 1.025 0.956 2.047 1.437 3.062l-2.153-0.012c0.002-0.014 0.009-0.027 0.008-0.041l0.178-15.443c0.001-0.303-0.113-0.596-0.328-0.815-0.048-0.048-0.102-0.093-0.159-0.133-0.187-0.132-0.412-0.206-0.646-0.21l-2.024-0.021 1.325 0.013c-1.975-4.577-3.897-9.199-5.75-13.889-0.008-0.027-0.005-0.051-0.014-0.078-0.589-1.491-1.169-2.981-1.726-4.436-0.604-1.692-0.269-3.563 0.882-4.886 0.473-0.548 0.625-1.307 0.393-1.995L33.416 13.593zM20.4 41.805c1.526-6.115 4.837-11.711 9.417-16.031 0.91 2.097 2.372 5.429 4.183 9.501-1.215 1.55-2.262 3.227-3.056 5.03-0.111 0.253-0.025 0.547 0.192 0.701 0.029 0.021 0.065 0.038 0.099 0.057 0.289 0.124 0.627-0.006 0.756-0.295 0.676-1.529 1.557-2.945 2.545-4.282 0.604 1.354 1.23 2.754 1.893 4.224-0.034-0.026-0.062-0.057-0.096-0.081-0.188-0.133-0.415-0.208-0.647-0.208l-2.025-0.024c-0.634-0.008-1.149 0.498-1.158 1.129l-0.146 12.948-1.995-1.59c0.131-0.186 0.218-0.4 0.221-0.636l0.052-4.522c0.004-0.306-0.115-0.598-0.326-0.816-0.049-0.048-0.104-0.095-0.16-0.134-0.187-0.132-0.417-0.206-0.646-0.208l-2.029-0.025c-0.633-0.005-1.147 0.501-1.155 1.133l-0.023 1.98-4.893-3.89c-0.015-0.013-0.034-0.026-0.052-0.039-0.228-0.161-0.512-0.234-0.79-0.203-0.303 0.037-0.579 0.19-0.769 0.429l-0.163 0.207c0.033-0.279 0.054-0.561 0.092-0.839C19.887 44.139 20.112 42.963 20.4 41.805zM20.435 57.926l-0.14-0.568 1.02 0.572L20.435 57.926zM17.081 61.078l0.012-2.025 6.08 0.033 3.575 2.012c-0.056 0.002-0.104 0.021-0.159 0.031L17.081 61.078zM25.218 68.592c-0.351-0.516-0.688-1.041-1.01-1.578-0.648-1.072-1.237-2.178-1.757-3.32-0.216-0.469-0.43-0.955-0.612-1.443l3.823 0.018-0.077 6.812C25.457 68.918 25.336 68.764 25.218 68.592zM26.489 90.271l0.316-28.012c0.056 0.004 0.108-0.021 0.166-0.031l1.86 0.012-0.316 28.053L26.489 90.271zM31.725 75.637l-1.882-1.471 0.128-11.354 2.199 1.236c-0.093 0.162-0.149 0.348-0.147 0.541l-0.129 11.174C31.837 75.721 31.78 75.68 31.725 75.637zM34.952 85.438l-2.025-0.021 0.101-8.771h0.018c-0.007-0.004-0.014-0.01-0.019-0.012l0.137-12.023 2.012 1.133L34.952 85.438zM38.57 66.342l-2.754-1.549c-0.025-0.018-0.053-0.037-0.08-0.053l-2.009-1.137c-0.009-0.002-0.018 0.002-0.027-0.006L15.046 53.084l0.994-1.765 17.104 9.646c0 0 0 0 0.002 0.002 0.032 0.021 0.067 0.039 0.097 0.059l7.092 3.994c0.004 0.004 0.009 0.002 0.014 0.004l12.192 6.869-0.996 1.764-10.559-5.949c-0.038-0.035-0.057-0.084-0.098-0.113-0.032-0.023-0.067-0.043-0.099-0.064l-2.012-1.133C38.715 66.361 38.638 66.363 38.57 66.342zM37.994 87.121l0.222-19.66 2.012 1.133-0.207 18.549L37.994 87.121zM49.027 82.801c-1.495-0.158-2.973-0.422-4.43-0.781-0.726-0.182-1.467-0.363-2.17-0.617-0.317-0.111-0.784-0.439-1.193-0.514l0.133-11.656 9.619 5.42c0.55 0.314 1.249 0.115 1.558-0.432-0.06 0.105-0.146 0.189-0.233 0.273 1.825 3.738 3.258 6.639 4.044 8.221C53.919 82.992 51.463 83.064 49.027 82.801zM68.92 86.32c-0.586 0.363-1.1 0.512-1.398 0.547l-0.878-1.441c-0.382-0.617-1.06-0.996-1.787-0.984-1.746 0.027-3.396-0.92-4.275-2.426l-1.92-3.504c-0.011-0.027-0.041-0.039-0.052-0.062-3.073-5.688-5.958-11.381-8.761-17.098l10.192 0.059c2.33 4.51 4.747 8.971 7.271 13.363 0.008 0.016 0.029 0.025 0.037 0.043l1.372 2.379c0.813 1.389 0.899 3.115 0.206 4.596-0.341 0.725-0.171 1.623 0.338 2.234l0.777 1.268C69.875 85.549 69.512 85.949 68.92 86.32z" data-fill-palette-color="accent"></path></g></svg></g></svg></g></svg></g></svg></g><g></g></svg></g></svg><rect width="372.0460702746867" height="247.2" fill="none" stroke="none" visibility="hidden"></rect></g></svg></g></svg>